<?xml version="1.0" encoding="UTF-8" standalone="no"?>
<!-- Created with Inkscape (http://www.inkscape.org/) -->

<svg
   xmlns:dc="http://purl.org/dc/elements/1.1/"
   xmlns:cc="http://creativecommons.org/ns#"
   xmlns:rdf="http://www.w3.org/1999/02/22-rdf-syntax-ns#"
   xmlns:svg="http://www.w3.org/2000/svg"
   xmlns="http://www.w3.org/2000/svg"
   xmlns:sodipodi="http://sodipodi.sourceforge.net/DTD/sodipodi-0.dtd"
   xmlns:inkscape="http://www.inkscape.org/namespaces/inkscape"
   width="256"
   height="256"
   id="svg2"
   version="1.1"
   inkscape:version="0.91 r13725"
   sodipodi:docname="authorNodeSize.svg"
   inkscape:export-filename="/home/rboncorp/Projects/metaScience/metaScience_gh-pages/imgs/authorNodeSize.png"
   inkscape:export-xdpi="5.6300001"
   inkscape:export-ydpi="5.6300001">
  <defs
     id="defs4" />
  <sodipodi:namedview
     id="base"
     pagecolor="#ffffff"
     bordercolor="#666666"
     borderopacity="1.0"
     inkscape:pageopacity="0.0"
     inkscape:pageshadow="2"
     inkscape:zoom="0.98994949"
     inkscape:cx="-173.63183"
     inkscape:cy="19.083238"
     inkscape:document-units="px"
     inkscape:current-layer="layer1"
     showgrid="false"
     inkscape:window-width="1920"
     inkscape:window-height="984"
     inkscape:window-x="0"
     inkscape:window-y="147"
     inkscape:window-maximized="1" />
  <metadata
     id="metadata7">
    <rdf:RDF>
      <cc:Work
         rdf:about="">
        <dc:format>image/svg+xml</dc:format>
        <dc:type
           rdf:resource="http://purl.org/dc/dcmitype/StillImage" />
        <dc:title></dc:title>
      </cc:Work>
    </rdf:RDF>
  </metadata>
  <g
     inkscape:label="Layer 1"
     inkscape:groupmode="layer"
     id="layer1"
     transform="translate(0,-796.36217)">
    <g
       id="g3793"
       transform="translate(-2.0203051,-27.274119)">
      <path
         transform="matrix(0.58497896,0,0,0.58497896,172.20738,919.15323)"
         d="M 145.46196,140.84261 A 86.873116,86.873116 0 0 1 58.588848,227.71572 86.873116,86.873116 0 0 1 -28.284267,140.84261 86.873116,86.873116 0 0 1 58.588848,53.96949 86.873116,86.873116 0 0 1 145.46196,140.84261 Z"
         sodipodi:ry="86.873116"
         sodipodi:rx="86.873116"
         sodipodi:cy="140.84261"
         sodipodi:cx="58.588848"
         id="path2985"
         style="fill:#808080;fill-opacity:1;fill-rule:evenodd;stroke:none"
         sodipodi:type="arc" />
      <path
         sodipodi:type="arc"
         style="fill:#808080;fill-opacity:1;fill-rule:evenodd;stroke:none"
         id="path3789"
         sodipodi:cx="58.588848"
         sodipodi:cy="140.84261"
         sodipodi:rx="86.873116"
         sodipodi:ry="86.873116"
         d="M 145.46196,140.84261 A 86.873116,86.873116 0 0 1 58.588848,227.71572 86.873116,86.873116 0 0 1 -28.284267,140.84261 86.873116,86.873116 0 0 1 58.588848,53.96949 86.873116,86.873116 0 0 1 145.46196,140.84261 Z"
         transform="matrix(0.3333751,0,0,0.3333751,76.021164,976.44738)" />
      <path
         transform="matrix(0.18241279,0,0,0.18241279,8.9106537,1010.8239)"
         d="M 145.46196,140.84261 A 86.873116,86.873116 0 0 1 58.588848,227.71572 86.873116,86.873116 0 0 1 -28.284267,140.84261 86.873116,86.873116 0 0 1 58.588848,53.96949 86.873116,86.873116 0 0 1 145.46196,140.84261 Z"
         sodipodi:ry="86.873116"
         sodipodi:rx="86.873116"
         sodipodi:cy="140.84261"
         sodipodi:cx="58.588848"
         id="path3791"
         style="fill:#808080;fill-opacity:1;fill-rule:evenodd;stroke:none"
         sodipodi:type="arc" />
    </g>
    <path
       style="fill:#c2a267;fill-opacity:1;stroke:none"
       d="m 10.845976,226.39163 c -7.8533163,-3.8874 -10.921654,-14.31985 -6.23639,-21.20393 3.6439153,-5.35402 7.200134,-7.44932 12.643286,-7.44932 8.763292,0 14.454374,5.30095 15.18794,14.14679 0.56319,6.79134 -2.114798,11.49027 -8.237734,14.45433 -5.408982,2.61845 -8.151026,2.62915 -13.357102,0.0521 z"
       id="path3337"
       inkscape:connector-curvature="0"
       transform="translate(0,796.36217)" />
    <path
       style="fill:#c2a267;fill-opacity:1;stroke:none"
       d="m 84.366138,226.51802 c -7.088713,-2.44848 -11.939018,-6.53116 -15.757855,-13.26396 -2.747613,-4.84419 -3.134412,-6.47113 -3.116109,-13.10685 0.02481,-8.99553 2.293046,-14.73671 8.075033,-20.4389 8.473947,-8.35699 20.680872,-10.63232 31.544113,-5.87971 18.5104,8.0982 22.42498,33.26506 7.29072,46.87206 -8.1444,7.32251 -17.848611,9.33611 -28.035902,5.81736 z"
       id="path3339"
       inkscape:connector-curvature="0"
       transform="translate(0,796.36217)" />
    <path
       style="fill:#c2a267;fill-opacity:1;stroke:none"
       d="m 193.035,226.86277 c -19.99345,-4.84707 -35.20934,-21.47956 -38.30192,-41.86785 -4.07703,-26.87836 15.16542,-52.60225 42.5152,-56.8356 31.33543,-4.85027 59.93397,21.84631 57.26779,53.45917 -2.59983,30.82623 -31.92792,52.40894 -61.48107,45.24428 z"
       id="path3341"
       inkscape:connector-curvature="0"
       transform="translate(0,796.36217)" />
  </g>
</svg>
