<?xml version="1.0" encoding="UTF-8" standalone="no"?>
<!-- Created with Inkscape (http://www.inkscape.org/) -->

<svg
   xmlns:dc="http://purl.org/dc/elements/1.1/"
   xmlns:cc="http://creativecommons.org/ns#"
   xmlns:rdf="http://www.w3.org/1999/02/22-rdf-syntax-ns#"
   xmlns:svg="http://www.w3.org/2000/svg"
   xmlns="http://www.w3.org/2000/svg"
   xmlns:sodipodi="http://sodipodi.sourceforge.net/DTD/sodipodi-0.dtd"
   xmlns:inkscape="http://www.inkscape.org/namespaces/inkscape"
   width="22.688652mm"
   height="22.688652mm"
   viewBox="0 0 80.392862 80.392861"
   id="svg2"
   version="1.1"
   inkscape:version="0.91 r13725"
   sodipodi:docname="favicon.svg">
  <defs
     id="defs4" />
  <sodipodi:namedview
     id="base"
     pagecolor="#ffffff"
     bordercolor="#666666"
     borderopacity="1.0"
     inkscape:pageopacity="0.0"
     inkscape:pageshadow="2"
     inkscape:zoom="5.6"
     inkscape:cx="86.843314"
     inkscape:cy="40.760382"
     inkscape:document-units="px"
     inkscape:current-layer="layer1"
     showgrid="false"
     inkscape:window-width="1600"
     inkscape:window-height="838"
     inkscape:window-x="-8"
     inkscape:window-y="1016"
     inkscape:window-maximized="1"
     fit-margin-top="0"
     fit-margin-left="0"
     fit-margin-right="0"
     fit-margin-bottom="0" />
  <metadata
     id="metadata7">
    <rdf:RDF>
      <cc:Work
         rdf:about="">
        <dc:format>image/svg+xml</dc:format>
        <dc:type
           rdf:resource="http://purl.org/dc/dcmitype/StillImage" />
        <dc:title></dc:title>
      </cc:Work>
    </rdf:RDF>
  </metadata>
  <g
     inkscape:label="Capa 1"
     inkscape:groupmode="layer"
     id="layer1"
     transform="translate(-31.907955,-253.32281)">
    <path
       style="fill:#808080;fill-opacity:1;stroke:none;stroke-width:20;stroke-linecap:square;stroke-miterlimit:4;stroke-dasharray:none;stroke-opacity:1"
       d="m 26.437858,149.42067 c 0,-0.33671 0.168359,-0.50507 0.505076,-0.50507 0.336718,0 0.505076,0.16836 0.505076,0.50507 0,0.33672 -0.168358,0.50508 -0.505076,0.50508 -0.336717,0 -0.505076,-0.16836 -0.505076,-0.50508 z"
       id="path4163"
       inkscape:connector-curvature="0" />
    <g
       id="g4175"
       transform="translate(0.17234352,6.8587337)">
      <path
         inkscape:connector-curvature="0"
         id="path4165"
         d="m 32.015097,286.66051 0,-29.80516 9.663785,0 9.663784,0 0,1.2207 c 0,1.08506 0.0452,1.22069 0.4069,1.22069 0.383311,0 0.4069,0.13563 0.4069,2.33965 0,2.20402 0.0236,2.33965 0.40689,2.33965 0.384294,0 0.4069,0.13564 0.4069,2.44138 0,2.30575 0.02263,2.44138 0.406901,2.44138 0.379766,0 0.406892,0.13563 0.406892,2.03448 0,1.89885 0.02715,2.03448 0.406899,2.03448 0.384286,0 0.406891,0.13563 0.406891,2.44138 0,2.30575 0.02263,2.44138 0.4069,2.44138 0.37834,0 0.406898,0.13563 0.406898,1.93275 0,1.79713 0.02852,1.93276 0.406892,1.93276 0.384294,0 0.406899,0.13563 0.406899,2.44138 0,2.30575 0.02263,2.44138 0.406899,2.44138 0.271258,0 0.406892,0.13563 0.406892,0.4069 0,0.27125 0.135632,0.40689 0.406898,0.40689 0.372984,0 0.406892,-0.13564 0.406892,-1.62759 0,-1.49195 0.03392,-1.62758 0.406899,-1.62758 0.378341,0 0.406899,-0.13563 0.406899,-1.93275 0,-1.79714 0.02851,-1.93277 0.406892,-1.93277 0.384294,0 0.406898,-0.13563 0.406898,-2.44137 0,-2.30575 0.02263,-2.44138 0.4069,-2.44138 0.384286,0 0.406891,-0.13563 0.406891,-2.44138 0,-2.30575 0.02263,-2.44138 0.406899,-2.44138 0.379767,0 0.406892,-0.13563 0.406892,-2.03448 0,-1.89885 0.02715,-2.03448 0.406898,-2.03448 0.384294,0 0.4069,-0.13562 0.4069,-2.44138 0,-2.03447 0.05083,-2.44137 0.305163,-2.44137 0.253575,0 0.305175,-0.3956 0.305175,-2.33965 l 0,-2.33967 10.070685,0 10.070683,0 0,29.80516 0,29.80515 -6.00172,0 -6.001721,0 0,-20.95516 c 0,-20.81953 -0.0027,-20.95515 -0.406894,-20.95515 -0.271272,0 -0.406904,0.13562 -0.406904,0.40689 0,0.27127 -0.135622,0.4069 -0.406895,0.4069 -0.384285,0 -0.406894,0.13563 -0.406894,2.44138 0,2.30574 -0.02261,2.44137 -0.406894,2.44137 -0.383308,0 -0.406895,0.13563 -0.406895,2.33966 0,2.20402 -0.0236,2.33966 -0.406903,2.33966 -0.387518,0 -0.406885,0.13562 -0.406885,2.84826 0,2.71265 -0.01929,2.84828 -0.406904,2.84828 -0.384296,0 -0.406895,0.13564 -0.406895,2.44138 0,2.30573 -0.02261,2.44137 -0.406894,2.44137 -0.384295,0 -0.406903,0.13564 -0.406903,2.44138 0,2.30574 -0.02262,2.44137 -0.406889,2.44137 -0.386807,0 -0.406899,0.13564 -0.406899,2.74655 0,2.61093 -0.02014,2.74655 -0.406898,2.74655 -0.384287,0 -0.406893,0.13564 -0.406893,2.44139 0,2.30574 -0.02263,2.44137 -0.406899,2.44137 -0.384293,0 -0.406898,0.13563 -0.406898,2.44137 0,2.30576 -0.02263,2.44139 -0.406893,2.44139 -0.271265,0 -0.406898,0.13564 -0.406898,0.40689 0,0.39626 -0.135633,0.4069 -5.187922,0.4069 -5.052295,0 -5.187927,-0.0105 -5.187927,-0.4069 0,-0.27125 -0.135634,-0.40689 -0.4069,-0.40689 -0.384294,0 -0.4069,-0.13563 -0.4069,-2.44139 0,-2.30574 -0.02263,-2.44137 -0.40689,-2.44137 -0.384295,0 -0.406899,-0.13563 -0.406899,-2.44137 0,-2.30575 -0.02263,-2.44139 -0.406892,-2.44139 -0.384293,0 -0.406899,-0.13562 -0.406899,-2.44137 0,-2.30574 -0.02263,-2.44139 -0.406899,-2.44139 -0.383304,0 -0.406892,-0.13563 -0.406892,-2.33964 0,-2.20402 -0.0236,-2.33965 -0.406899,-2.33965 -0.384293,0 -0.406899,-0.13563 -0.406899,-2.44138 0,-2.30575 -0.02263,-2.44138 -0.406892,-2.44138 -0.384293,0 -0.406899,-0.13563 -0.406899,-2.44137 0,-2.30575 -0.02263,-2.44138 -0.40689,-2.44138 -0.384295,0 -0.406901,-0.13563 -0.406901,-2.44138 0,-2.30575 -0.02263,-2.44138 -0.406899,-2.44138 -0.383302,0 -0.40689,-0.13563 -0.40689,-2.33965 0,-2.20402 -0.0236,-2.33965 -0.4069,-2.33965 -0.372991,0 -0.406899,-0.13564 -0.406899,-1.62759 0,-1.49196 -0.03392,-1.62759 -0.406891,-1.62759 -0.404314,0 -0.4069,0.13563 -0.4069,21.36206 l 0,21.36205 -6.001715,0 -6.001724,0 0,-29.80515 z"
         style="fill:#2b5a70;fill-opacity:1;stroke:none;stroke-width:20;stroke-linecap:square;stroke-miterlimit:4;stroke-dasharray:none;stroke-opacity:1" />
      <path
         inkscape:connector-curvature="0"
         id="path4161"
         d="m 95.620697,315.18397 c 0,-0.31346 -0.11194,-0.33584 -1.67925,-0.33584 -1.5673,0 -1.67925,-0.0224 -1.67925,-0.33585 0,-0.27988 -0.11196,-0.33586 -0.6717,-0.33586 -0.55976,0 -0.67171,-0.056 -0.67171,-0.33585 0,-0.27987 -0.11194,-0.33585 -0.6717,-0.33585 -0.55975,0 -0.6717,-0.056 -0.6717,-0.33586 0,-0.2239 -0.11196,-0.33585 -0.33586,-0.33585 -0.22389,0 -0.33584,-0.11195 -0.33584,-0.33584 0,-0.22391 -0.11195,-0.33585 -0.33586,-0.33585 -0.2239,0 -0.33585,-0.11196 -0.33585,-0.33585 0,-0.2239 -0.11194,-0.33586 -0.33584,-0.33586 -0.22391,0 -0.33586,-0.11195 -0.33586,-0.33585 0,-0.2239 -0.11195,-0.33585 -0.33585,-0.33585 -0.27987,0 -0.33585,-0.11195 -0.33585,-0.6717 0,-0.55975 -0.056,-0.67171 -0.33586,-0.67171 -0.29852,0 -0.33585,-0.11195 -0.33585,-1.00755 0,-0.89561 -0.0373,-1.00755 -0.33584,-1.00755 -0.30787,0 -0.33586,-0.11196 -0.33586,-1.34341 0,-1.23145 -0.028,-1.3434 -0.33584,-1.3434 -0.32708,0 -0.33586,-0.11196 -0.33586,-4.2821 l 0,-4.28211 5.03777,0 5.03777,0 0,2.9387 c 0,2.82675 0.0128,2.93869 0.33585,2.93869 0.30786,0 0.33584,0.11196 0.33584,1.34342 0,1.23144 0.028,1.3434 0.33586,1.3434 0.2239,0 0.33585,0.11195 0.33585,0.33585 0,0.31347 0.11195,0.33586 1.679263,0.33586 1.5673,0 1.679248,-0.0224 1.679248,-0.33586 0,-0.2239 0.11196,-0.33585 0.335851,-0.33585 0.223911,0 0.335851,-0.11196 0.335851,-0.33585 0,-0.18659 0.11196,-0.33586 0.25189,-0.33586 0.21147,0 0.25188,-0.36383 0.25188,-2.26699 0,-1.90315 -0.0405,-2.26699 -0.25188,-2.26699 -0.19591,0 -0.25189,-0.2239 -0.25189,-1.00756 0,-0.89561 -0.0374,-1.00755 -0.335851,-1.00755 -0.223891,0 -0.335851,-0.11196 -0.335851,-0.33585 0,-0.2239 -0.111948,-0.33586 -0.335848,-0.33586 -0.22391,0 -0.33585,-0.11195 -0.33585,-0.33584 0,-0.2239 -0.11195,-0.33586 -0.33585,-0.33586 -0.2239,0 -0.33585,-0.11194 -0.33585,-0.33585 0,-0.2239 -0.11196,-0.33584 -0.33585,-0.33584 -0.223903,0 -0.335863,-0.11196 -0.335863,-0.33586 0,-0.22391 -0.11194,-0.33585 -0.33585,-0.33585 -0.2239,0 -0.33584,-0.11196 -0.33584,-0.33585 0,-0.2239 -0.11196,-0.33586 -0.33586,-0.33586 -0.2239,0 -0.33585,-0.11194 -0.33585,-0.33585 0,-0.2239 -0.11195,-0.33585 -0.33585,-0.33585 -0.2239,0 -0.33586,-0.11195 -0.33586,-0.33585 0,-0.2239 -0.11194,-0.33584 -0.33584,-0.33584 -0.2239,0 -0.33585,-0.11196 -0.33585,-0.33586 0,-0.2239 -0.11195,-0.33585 -0.33585,-0.33585 -0.22391,0 -0.33585,-0.11196 -0.33585,-0.33585 0,-0.2239 -0.11196,-0.33586 -0.33586,-0.33586 -0.2239,0 -0.33585,-0.11194 -0.33585,-0.33585 0,-0.2239 -0.11195,-0.33584 -0.33585,-0.33584 -0.2239,0 -0.33586,-0.11196 -0.33586,-0.33586 0,-0.27987 -0.11194,-0.33585 -0.67169,-0.33585 -0.55975,0 -0.6717,-0.056 -0.6717,-0.33585 0,-0.2239 -0.11196,-0.33586 -0.33586,-0.33586 -0.2239,0 -0.33585,-0.11194 -0.33585,-0.33584 0,-0.2239 -0.11194,-0.33585 -0.33585,-0.33585 -0.2239,0 -0.33585,-0.11195 -0.33585,-0.33585 0,-0.22391 -0.11195,-0.33585 -0.33585,-0.33585 -0.2239,0 -0.33585,-0.11196 -0.33585,-0.33586 0,-0.22389 -0.11196,-0.33585 -0.33586,-0.33585 -0.22389,0 -0.33584,-0.11195 -0.33584,-0.33585 0,-0.2239 -0.11195,-0.33586 -0.33586,-0.33586 -0.2239,0 -0.33585,-0.11194 -0.33585,-0.33584 0,-0.22391 -0.11194,-0.33585 -0.33584,-0.33585 -0.27188,0 -0.33586,-0.11196 -0.33586,-0.58774 0,-0.4758 -0.064,-0.58774 -0.33585,-0.58774 -0.2239,0 -0.33585,-0.11196 -0.33585,-0.33585 0,-0.2239 -0.11196,-0.33586 -0.33586,-0.33586 -0.29852,0 -0.33585,-0.11195 -0.33585,-1.00755 0,-0.8956 -0.0373,-1.00755 -0.33584,-1.00755 -0.29854,0 -0.33586,-0.11196 -0.33586,-1.00756 0,-0.89561 -0.0374,-1.00754 -0.33584,-1.00754 -0.32187,0 -0.33586,-0.11196 -0.33586,-2.68681 0,-2.57487 0.014,-2.68682 0.33586,-2.68682 0.30785,0 0.33584,-0.11194 0.33584,-1.3434 0,-1.23146 0.028,-1.34341 0.33586,-1.34341 0.27988,0 0.33584,-0.11194 0.33584,-0.6717 0,-0.55975 0.056,-0.6717 0.33585,-0.6717 0.27988,0 0.33586,-0.11196 0.33586,-0.6717 0,-0.55976 0.056,-0.6717 0.33585,-0.6717 0.2239,0 0.33585,-0.11195 0.33585,-0.33585 0,-0.22391 0.11195,-0.33586 0.33586,-0.33586 0.18658,0 0.33584,-0.11195 0.33584,-0.25188 0,-0.13994 0.14926,-0.25189 0.33585,-0.25189 0.22391,0 0.33586,-0.11196 0.33586,-0.33586 0,-0.2239 0.11195,-0.33584 0.33584,-0.33584 0.2239,0 0.33586,-0.11196 0.33586,-0.33586 0,-0.27988 0.11195,-0.33585 0.6717,-0.33585 0.55976,0 0.6717,-0.056 0.6717,-0.33585 0,-0.27988 0.11195,-0.33585 0.67171,-0.33585 0.55974,0 0.6717,-0.056 0.6717,-0.33585 0,-0.30786 0.11195,-0.33585 1.3434,-0.33585 1.23146,0 1.34341,-0.028 1.34341,-0.33586 0,-0.32305 0.11195,-0.33584 2.938693,-0.33584 2.82676,0 2.93869,0.0128 2.93869,0.33584 0,0.30787 0.11196,0.33586 1.34341,0.33586 1.23145,0 1.3434,0.028 1.3434,0.33585 0,0.27987 0.11195,0.33585 0.67171,0.33585 0.55974,0 0.6717,0.056 0.6717,0.33585 0,0.27987 0.11194,0.33585 0.67169,0.33585 0.55976,0 0.67171,0.056 0.67171,0.33585 0,0.2239 0.11195,0.33586 0.33585,0.33586 0.2239,0 0.33586,0.11194 0.33586,0.33584 0,0.2239 0.11194,0.33586 0.33585,0.33586 0.18658,0 0.33584,0.11195 0.33584,0.25189 0,0.13993 0.14927,0.25188 0.33586,0.25188 0.2239,0 0.33584,0.11195 0.33584,0.33586 0,0.2239 0.11196,0.33585 0.33586,0.33585 0.27988,0 0.33585,0.11194 0.33585,0.6717 0,0.55974 0.056,0.6717 0.33585,0.6717 0.29853,0 0.33586,0.11195 0.33586,1.00756 0,0.89559 0.0373,1.00755 0.33584,1.00755 0.31346,0 0.33585,0.11195 0.33585,1.67925 0,1.56731 0.0224,1.67926 0.33586,1.67926 0.31346,0 0.33585,0.11195 0.33585,1.67925 l 0,1.67926 -5.28966,0 -5.28965,0 0,-2.0151 c 0,-1.90316 -0.0187,-2.01511 -0.335851,-2.01511 -0.223891,0 -0.335851,-0.11196 -0.335851,-0.33586 0,-0.2239 -0.111948,-0.33585 -0.335848,-0.33585 -0.22391,0 -0.33585,-0.11194 -0.33585,-0.33585 0,-0.30787 -0.11195,-0.33585 -1.343413,-0.33585 -1.23145,0 -1.3434,0.028 -1.3434,0.33585 0,0.22391 -0.11195,0.33585 -0.33585,0.33585 -0.2239,0 -0.33586,0.11195 -0.33586,0.33585 0,0.2239 -0.11194,0.33586 -0.33584,0.33586 -0.30787,0 -0.33585,0.11195 -0.33585,1.34339 0,1.23146 0.028,1.34342 0.33585,1.34342 0.27987,0 0.33584,0.11194 0.33584,0.67169 0,0.55976 0.056,0.67171 0.33586,0.67171 0.2239,0 0.33585,0.11195 0.33585,0.33585 0,0.2239 0.11195,0.33586 0.33585,0.33586 0.2239,0 0.33586,0.11193 0.33586,0.33584 0,0.2239 0.11194,0.33586 0.33584,0.33586 0.22391,0 0.33585,0.11194 0.33585,0.33584 0,0.22391 0.11196,0.33585 0.335863,0.33585 0.22389,0 0.33585,0.11196 0.33585,0.33586 0,0.22389 0.11195,0.33585 0.33585,0.33585 0.2239,0 0.33585,0.11195 0.33585,0.33585 0,0.27988 0.11194,0.33586 0.671698,0.33586 0.559762,0 0.671702,0.056 0.671702,0.33584 0,0.18659 0.11196,0.33585 0.25189,0.33585 0.13995,0 0.25188,0.14927 0.25188,0.33585 0,0.2239 0.11196,0.33585 0.33585,0.33585 0.2239,0 0.33586,0.11196 0.33586,0.33586 0,0.22389 0.11195,0.33585 0.33584,0.33585 0.18659,0 0.33586,0.11194 0.33586,0.25189 0,0.13993 0.14927,0.25189 0.33585,0.25189 0.2239,0 0.33585,0.11195 0.33585,0.33584 0,0.27988 0.11195,0.33586 0.6717,0.33586 0.55975,0 0.67171,0.056 0.67171,0.33585 0,0.2239 0.11195,0.33584 0.33584,0.33584 0.2239,0 0.33586,0.11196 0.33586,0.33586 0,0.2239 0.11194,0.33585 0.33585,0.33585 0.2239,0 0.33584,0.11196 0.33584,0.33585 0,0.2239 0.11196,0.33586 0.33586,0.33586 0.2239,0 0.33585,0.11194 0.33585,0.33585 0,0.2239 0.11195,0.33585 0.33585,0.33585 0.2239,0 0.33586,0.11195 0.33586,0.33585 0,0.2239 0.11194,0.33584 0.33585,0.33584 0.2239,0 0.33584,0.11196 0.33584,0.33586 0,0.2239 0.11196,0.33585 0.33586,0.33585 0.27987,0 0.33584,0.11196 0.33584,0.67171 0,0.55975 0.056,0.67169 0.33586,0.67169 0.2239,0 0.33585,0.11196 0.33585,0.33586 0,0.22389 0.11194,0.33585 0.33585,0.33585 0.27988,0 0.33586,0.11195 0.33586,0.67171 0,0.55974 0.056,0.67169 0.33584,0.67169 0.29854,0 0.33585,0.11195 0.33585,1.00756 0,0.8956 0.0373,1.00756 0.33586,1.00756 0.32874,0 0.33585,0.11194 0.33585,5.28964 0,5.17771 -0.008,5.28966 -0.33585,5.28966 -0.29854,0 -0.33586,0.11195 -0.33586,1.00756 0,0.8956 -0.0374,1.00755 -0.33585,1.00755 -0.29853,0 -0.33584,0.11195 -0.33584,1.00756 0,0.89559 -0.0373,1.00755 -0.33586,1.00755 -0.22391,0 -0.33585,0.11194 -0.33585,0.33584 0,0.22391 -0.11195,0.33586 -0.33585,0.33586 -0.27988,0 -0.33586,0.11195 -0.33586,0.6717 0,0.55975 -0.056,0.67171 -0.33584,0.67171 -0.2239,0 -0.33586,0.11194 -0.33586,0.33585 0,0.27988 -0.11194,0.33584 -0.67169,0.33584 -0.55976,0 -0.67171,0.056 -0.67171,0.33585 0,0.22391 -0.11195,0.33586 -0.33585,0.33586 -0.2239,0 -0.33586,0.11195 -0.33586,0.33585 0,0.27988 -0.11194,0.33585 -0.67169,0.33585 -0.55975,0 -0.6717,0.056 -0.6717,0.33586 0,0.31345 -0.11196,0.33585 -1.67926,0.33585 -1.5673,0 -1.67926,0.0224 -1.67926,0.33584 0,0.32141 -0.11193,0.33585 -2.60284,0.33585 -2.490893,0 -2.602853,-0.0145 -2.602853,-0.33585 z"
         style="fill:#ffffff;fill-opacity:1;stroke:#2b5a70;stroke-width:1.89114618;stroke-linecap:square;stroke-miterlimit:4;stroke-dasharray:none;stroke-opacity:1" />
    </g>
  </g>
</svg>
